%TF.GenerationSoftware,KiCad,Pcbnew,(5.1.10)-1*%
%TF.CreationDate,2021-08-31T21:24:33+02:00*%
%TF.ProjectId,PCB-EUROBOT2022,5043422d-4555-4524-9f42-4f5432303232,rev?*%
%TF.SameCoordinates,Original*%
%TF.FileFunction,Soldermask,Bot*%
%TF.FilePolarity,Negative*%
%FSLAX46Y46*%
G04 Gerber Fmt 4.6, Leading zero omitted, Abs format (unit mm)*
G04 Created by KiCad (PCBNEW (5.1.10)-1) date 2021-08-31 21:24:33*
%MOMM*%
%LPD*%
G01*
G04 APERTURE LIST*
%ADD10O,1.600000X1.600000*%
%ADD11C,1.600000*%
%ADD12C,0.254000*%
%ADD13C,0.100000*%
G04 APERTURE END LIST*
D10*
%TO.C,R2*%
X150000000Y-94340000D03*
D11*
X150000000Y-104500000D03*
%TD*%
%TO.C,R3*%
G36*
G01*
X150625001Y-101700000D02*
X149374999Y-101700000D01*
G75*
G02*
X149125000Y-101450001I0J249999D01*
G01*
X149125000Y-100649999D01*
G75*
G02*
X149374999Y-100400000I249999J0D01*
G01*
X150625001Y-100400000D01*
G75*
G02*
X150875000Y-100649999I0J-249999D01*
G01*
X150875000Y-101450001D01*
G75*
G02*
X150625001Y-101700000I-249999J0D01*
G01*
G37*
G36*
G01*
X150625001Y-98600000D02*
X149374999Y-98600000D01*
G75*
G02*
X149125000Y-98350001I0J249999D01*
G01*
X149125000Y-97549999D01*
G75*
G02*
X149374999Y-97300000I249999J0D01*
G01*
X150625001Y-97300000D01*
G75*
G02*
X150875000Y-97549999I0J-249999D01*
G01*
X150875000Y-98350001D01*
G75*
G02*
X150625001Y-98600000I-249999J0D01*
G01*
G37*
%TD*%
%TO.C,R4*%
X150000000Y-104500000D03*
D10*
X150000000Y-94340000D03*
%TD*%
D12*
X198873000Y-108373000D02*
X151627000Y-108373000D01*
X151627000Y-90627000D01*
X198873000Y-90627000D01*
X198873000Y-108373000D01*
D13*
G36*
X198873000Y-108373000D02*
G01*
X151627000Y-108373000D01*
X151627000Y-90627000D01*
X198873000Y-90627000D01*
X198873000Y-108373000D01*
G37*
D12*
X148373000Y-108373000D02*
X101127000Y-108373000D01*
X101127000Y-90627000D01*
X148373000Y-90627000D01*
X148373000Y-108373000D01*
D13*
G36*
X148373000Y-108373000D02*
G01*
X101127000Y-108373000D01*
X101127000Y-90627000D01*
X148373000Y-90627000D01*
X148373000Y-108373000D01*
G37*
M02*
