%TF.GenerationSoftware,KiCad,Pcbnew,(5.1.10)-1*%
%TF.CreationDate,2021-08-31T21:24:33+02:00*%
%TF.ProjectId,PCB-EUROBOT2022,5043422d-4555-4524-9f42-4f5432303232,rev?*%
%TF.SameCoordinates,Original*%
%TF.FileFunction,Copper,L1,Top*%
%TF.FilePolarity,Positive*%
%FSLAX46Y46*%
G04 Gerber Fmt 4.6, Leading zero omitted, Abs format (unit mm)*
G04 Created by KiCad (PCBNEW (5.1.10)-1) date 2021-08-31 21:24:33*
%MOMM*%
%LPD*%
G01*
G04 APERTURE LIST*
%TA.AperFunction,ComponentPad*%
%ADD10O,1.600000X1.600000*%
%TD*%
%TA.AperFunction,ComponentPad*%
%ADD11C,1.600000*%
%TD*%
%TA.AperFunction,Conductor*%
%ADD12C,1.000000*%
%TD*%
%TA.AperFunction,Conductor*%
%ADD13C,0.254000*%
%TD*%
%TA.AperFunction,Conductor*%
%ADD14C,0.100000*%
%TD*%
G04 APERTURE END LIST*
D10*
%TO.P,R2,2*%
%TO.N,/B*%
X150000000Y-94340000D03*
D11*
%TO.P,R2,1*%
%TO.N,/A*%
X150000000Y-104500000D03*
%TD*%
%TO.P,R1,2*%
%TO.N,/B*%
%TA.AperFunction,SMDPad,CuDef*%
G36*
G01*
X150625001Y-98600000D02*
X149374999Y-98600000D01*
G75*
G02*
X149125000Y-98350001I0J249999D01*
G01*
X149125000Y-97549999D01*
G75*
G02*
X149374999Y-97300000I249999J0D01*
G01*
X150625001Y-97300000D01*
G75*
G02*
X150875000Y-97549999I0J-249999D01*
G01*
X150875000Y-98350001D01*
G75*
G02*
X150625001Y-98600000I-249999J0D01*
G01*
G37*
%TD.AperFunction*%
%TO.P,R1,1*%
%TO.N,/A*%
%TA.AperFunction,SMDPad,CuDef*%
G36*
G01*
X150625001Y-101700000D02*
X149374999Y-101700000D01*
G75*
G02*
X149125000Y-101450001I0J249999D01*
G01*
X149125000Y-100649999D01*
G75*
G02*
X149374999Y-100400000I249999J0D01*
G01*
X150625001Y-100400000D01*
G75*
G02*
X150875000Y-100649999I0J-249999D01*
G01*
X150875000Y-101450001D01*
G75*
G02*
X150625001Y-101700000I-249999J0D01*
G01*
G37*
%TD.AperFunction*%
%TD*%
%TO.P,R4,1*%
%TO.N,/A*%
X150000000Y-104500000D03*
D10*
%TO.P,R4,2*%
%TO.N,/B*%
X150000000Y-94340000D03*
%TD*%
D12*
%TO.N,/B*%
X150000000Y-97950000D02*
X150000000Y-94340000D01*
X150000000Y-94340000D02*
X152500000Y-94340000D01*
%TO.N,/A*%
X150000000Y-101050000D02*
X150000000Y-104500000D01*
X150000000Y-104500000D02*
X148000000Y-104500000D01*
%TD*%
D13*
%TO.N,/B*%
X198170189Y-90644376D02*
X198333850Y-90694022D01*
X198484672Y-90774638D01*
X198616870Y-90883130D01*
X198725362Y-91015328D01*
X198805978Y-91166150D01*
X198855624Y-91329811D01*
X198873000Y-91506234D01*
X198873000Y-107493766D01*
X198855624Y-107670189D01*
X198805978Y-107833850D01*
X198725362Y-107984672D01*
X198616870Y-108116870D01*
X198484672Y-108225362D01*
X198333850Y-108305978D01*
X198170189Y-108355624D01*
X197993766Y-108373000D01*
X152506234Y-108373000D01*
X152329811Y-108355624D01*
X152166150Y-108305978D01*
X152015328Y-108225362D01*
X151883130Y-108116870D01*
X151774638Y-107984672D01*
X151694022Y-107833850D01*
X151644376Y-107670189D01*
X151627000Y-107493766D01*
X151627000Y-91506234D01*
X151644376Y-91329811D01*
X151694022Y-91166150D01*
X151774638Y-91015328D01*
X151883130Y-90883130D01*
X152015328Y-90774638D01*
X152166150Y-90694022D01*
X152329811Y-90644376D01*
X152506234Y-90627000D01*
X197993766Y-90627000D01*
X198170189Y-90644376D01*
%TA.AperFunction,Conductor*%
D14*
G36*
X198170189Y-90644376D02*
G01*
X198333850Y-90694022D01*
X198484672Y-90774638D01*
X198616870Y-90883130D01*
X198725362Y-91015328D01*
X198805978Y-91166150D01*
X198855624Y-91329811D01*
X198873000Y-91506234D01*
X198873000Y-107493766D01*
X198855624Y-107670189D01*
X198805978Y-107833850D01*
X198725362Y-107984672D01*
X198616870Y-108116870D01*
X198484672Y-108225362D01*
X198333850Y-108305978D01*
X198170189Y-108355624D01*
X197993766Y-108373000D01*
X152506234Y-108373000D01*
X152329811Y-108355624D01*
X152166150Y-108305978D01*
X152015328Y-108225362D01*
X151883130Y-108116870D01*
X151774638Y-107984672D01*
X151694022Y-107833850D01*
X151644376Y-107670189D01*
X151627000Y-107493766D01*
X151627000Y-91506234D01*
X151644376Y-91329811D01*
X151694022Y-91166150D01*
X151774638Y-91015328D01*
X151883130Y-90883130D01*
X152015328Y-90774638D01*
X152166150Y-90694022D01*
X152329811Y-90644376D01*
X152506234Y-90627000D01*
X197993766Y-90627000D01*
X198170189Y-90644376D01*
G37*
%TD.AperFunction*%
%TD*%
D13*
%TO.N,/A*%
X147670189Y-90644376D02*
X147833850Y-90694022D01*
X147984672Y-90774638D01*
X148116870Y-90883130D01*
X148225362Y-91015328D01*
X148305978Y-91166150D01*
X148355624Y-91329811D01*
X148373000Y-91506234D01*
X148373000Y-107493766D01*
X148355624Y-107670189D01*
X148305978Y-107833850D01*
X148225362Y-107984672D01*
X148116870Y-108116870D01*
X147984672Y-108225362D01*
X147833850Y-108305978D01*
X147670189Y-108355624D01*
X147493766Y-108373000D01*
X102006234Y-108373000D01*
X101829811Y-108355624D01*
X101666150Y-108305978D01*
X101515328Y-108225362D01*
X101383130Y-108116870D01*
X101274638Y-107984672D01*
X101194022Y-107833850D01*
X101144376Y-107670189D01*
X101127000Y-107493766D01*
X101127000Y-91506234D01*
X101144376Y-91329811D01*
X101194022Y-91166150D01*
X101274638Y-91015328D01*
X101383130Y-90883130D01*
X101515328Y-90774638D01*
X101666150Y-90694022D01*
X101829811Y-90644376D01*
X102006234Y-90627000D01*
X147493766Y-90627000D01*
X147670189Y-90644376D01*
%TA.AperFunction,Conductor*%
D14*
G36*
X147670189Y-90644376D02*
G01*
X147833850Y-90694022D01*
X147984672Y-90774638D01*
X148116870Y-90883130D01*
X148225362Y-91015328D01*
X148305978Y-91166150D01*
X148355624Y-91329811D01*
X148373000Y-91506234D01*
X148373000Y-107493766D01*
X148355624Y-107670189D01*
X148305978Y-107833850D01*
X148225362Y-107984672D01*
X148116870Y-108116870D01*
X147984672Y-108225362D01*
X147833850Y-108305978D01*
X147670189Y-108355624D01*
X147493766Y-108373000D01*
X102006234Y-108373000D01*
X101829811Y-108355624D01*
X101666150Y-108305978D01*
X101515328Y-108225362D01*
X101383130Y-108116870D01*
X101274638Y-107984672D01*
X101194022Y-107833850D01*
X101144376Y-107670189D01*
X101127000Y-107493766D01*
X101127000Y-91506234D01*
X101144376Y-91329811D01*
X101194022Y-91166150D01*
X101274638Y-91015328D01*
X101383130Y-90883130D01*
X101515328Y-90774638D01*
X101666150Y-90694022D01*
X101829811Y-90644376D01*
X102006234Y-90627000D01*
X147493766Y-90627000D01*
X147670189Y-90644376D01*
G37*
%TD.AperFunction*%
%TD*%
M02*
